<svg width="310" height="437" viewBox="0 0 310 437" fill="none" xmlns="http://www.w3.org/2000/svg">
<g filter="url(#filter0_dd_3_105)">
<ellipse cx="170.751" cy="378.757" rx="23.2434" ry="23.2434" fill="url(#paint0_linear_3_105)" shape-rendering="crispEdges"/>
</g>
<g filter="url(#filter1_dd_3_105)">
<ellipse cx="241.635" cy="304.572" rx="17.1957" ry="17.1957" fill="url(#paint1_linear_3_105)" shape-rendering="crispEdges"/>
</g>
<ellipse cx="134.508" cy="166.508" rx="174.508" ry="174.508" fill="url(#paint2_radial_3_105)" fill-opacity="0.6"/>
<g filter="url(#filter2_d_3_105)">
<ellipse cx="170.403" cy="205.654" rx="104.557" ry="65.5019" fill="url(#paint3_linear_3_105)" fill-opacity="0.5" shape-rendering="crispEdges"/>
<path d="M274.442 205.654C274.442 223.5 262.895 239.734 244.061 251.533C225.235 263.327 199.194 270.639 170.403 270.639C141.613 270.639 115.572 263.327 96.7454 251.533C77.9118 239.734 66.3643 223.5 66.3643 205.654C66.3643 187.809 77.9118 171.575 96.7454 159.776C115.572 147.982 141.613 140.67 170.403 140.67C199.194 140.67 225.235 147.982 244.061 159.776C262.895 171.575 274.442 187.809 274.442 205.654Z" stroke="url(#paint4_linear_3_105)" stroke-opacity="0.6" stroke-width="1.03515" shape-rendering="crispEdges"/>
</g>
<ellipse cx="170.402" cy="144.577" rx="132.647" ry="132.647" fill="url(#paint5_radial_3_105)"/>
<ellipse cx="170.401" cy="166.508" rx="129.684" ry="75.8679" fill="url(#paint6_linear_3_105)" fill-opacity="0.5"/>
<path d="M299.568 166.508C299.568 187.199 285.229 206.026 261.841 219.708C238.465 233.384 206.137 241.859 170.401 241.859C134.665 241.859 102.338 233.384 78.962 219.708C55.5737 206.026 41.2345 187.199 41.2345 166.508C41.2345 145.818 55.5737 126.991 78.962 113.308C102.338 99.6331 134.665 91.1581 170.401 91.1581C206.137 91.1581 238.465 99.6331 261.841 113.308C285.229 126.991 299.568 145.818 299.568 166.508Z" stroke="url(#paint7_linear_3_105)" stroke-opacity="0.6" stroke-width="1.03515"/>
<ellipse cx="170.401" cy="144.576" rx="98.254" ry="98.2541" fill="url(#paint8_radial_3_105)"/>
<ellipse cx="170.401" cy="144.576" rx="98.254" ry="98.2541" fill="url(#paint9_radial_3_105)"/>
<g filter="url(#filter3_d_3_105)">
<ellipse cx="170.402" cy="119.406" rx="128.365" ry="74.1134" fill="url(#paint10_linear_3_105)" fill-opacity="0.5" shape-rendering="crispEdges"/>
<path d="M298.25 119.406C298.25 139.609 284.063 157.998 260.911 171.364C237.774 184.723 205.775 193.002 170.402 193.002C135.029 193.002 103.031 184.723 79.893 171.364C56.7417 157.998 42.5545 139.609 42.5545 119.406C42.5545 99.2038 56.7417 80.8153 79.893 67.4486C103.031 54.0898 135.029 45.8107 170.402 45.8107C205.775 45.8107 237.774 54.0898 260.911 67.4486C284.063 80.8153 298.25 99.2038 298.25 119.406Z" stroke="url(#paint11_linear_3_105)" stroke-opacity="0.6" stroke-width="1.03515" shape-rendering="crispEdges"/>
</g>
<g filter="url(#filter4_d_3_105)">
<ellipse cx="170.401" cy="81.1356" rx="99.6077" ry="64.3838" fill="url(#paint12_linear_3_105)" fill-opacity="0.5" shape-rendering="crispEdges"/>
<path d="M269.492 81.1356C269.492 98.6802 258.489 114.634 240.554 126.227C222.624 137.817 197.823 145.002 170.401 145.002C142.98 145.002 118.179 137.817 100.249 126.227C82.3138 114.634 71.3113 98.6802 71.3113 81.1356C71.3113 63.591 82.3138 47.6369 100.249 36.044C118.179 24.4545 142.98 17.2693 170.401 17.2693C197.823 17.2693 222.624 24.4545 240.554 36.044C258.489 47.6369 269.492 63.591 269.492 81.1356Z" stroke="url(#paint13_linear_3_105)" stroke-opacity="0.6" stroke-width="1.03515" shape-rendering="crispEdges"/>
</g>
<ellipse cx="170.403" cy="58.7731" rx="61.9983" ry="42.0213" fill="url(#paint14_linear_3_105)" fill-opacity="0.5"/>
<path d="M231.884 58.7731C231.884 70.1541 225.078 80.5173 213.952 88.0582C202.829 95.5972 187.434 100.277 170.403 100.277C153.373 100.277 137.977 95.5972 126.854 88.0582C115.729 80.5173 108.923 70.1541 108.923 58.7731C108.923 47.3921 115.729 37.0289 126.854 29.488C137.977 21.949 153.373 17.2693 170.403 17.2693C187.434 17.2693 202.829 21.949 213.952 29.488C225.078 37.0289 231.884 47.3921 231.884 58.7731Z" stroke="url(#paint15_linear_3_105)" stroke-opacity="0.6" stroke-width="1.03515"/>
<ellipse cx="170.402" cy="44.428" rx="35.8941" ry="24.6974" fill="url(#paint16_linear_3_105)" fill-opacity="0.5"/>
<path d="M205.779 44.428C205.779 51.0287 201.891 57.061 195.49 61.4653C189.091 65.8681 180.223 68.6079 170.402 68.6079C160.582 68.6079 151.714 65.8681 145.315 61.4653C138.914 57.061 135.026 51.0287 135.026 44.428C135.026 37.8274 138.914 31.7951 145.315 27.3907C151.714 22.988 160.582 20.2482 170.402 20.2482C180.223 20.2482 189.091 22.988 195.49 27.3907C201.891 31.7951 205.779 37.8274 205.779 44.428Z" stroke="url(#paint17_linear_3_105)" stroke-opacity="0.6" stroke-width="1.03515"/>
<ellipse cx="170.402" cy="144.576" rx="132.647" ry="132.647" fill="url(#paint18_radial_3_105)" fill-opacity="0.3"/>
<defs>
<filter id="filter0_dd_3_105" x="111.278" y="317.212" width="118.948" height="118.948" filterUnits="userSpaceOnUse" color-interpolation-filters="sRGB">
<feFlood flood-opacity="0" result="BackgroundImageFix"/>
<feColorMatrix in="SourceAlpha" type="matrix" values="0 0 0 0 0 0 0 0 0 0 0 0 0 0 0 0 0 0 127 0" result="hardAlpha"/>
<feOffset dy="-2.07031"/>
<feGaussianBlur stdDeviation="18.1152"/>
<feComposite in2="hardAlpha" operator="out"/>
<feColorMatrix type="matrix" values="0 0 0 0 0.371081 0 0 0 0 0.235903 0 0 0 0 0.658333 0 0 0 1 0"/>
<feBlend mode="normal" in2="BackgroundImageFix" result="effect1_dropShadow_3_105"/>
<feColorMatrix in="SourceAlpha" type="matrix" values="0 0 0 0 0 0 0 0 0 0 0 0 0 0 0 0 0 0 127 0" result="hardAlpha"/>
<feOffset dy="-2.07031"/>
<feGaussianBlur stdDeviation="10.3515"/>
<feComposite in2="hardAlpha" operator="out"/>
<feColorMatrix type="matrix" values="0 0 0 0 0.48825 0 0 0 0 0.372778 0 0 0 0 0.733333 0 0 0 1 0"/>
<feBlend mode="normal" in2="effect1_dropShadow_3_105" result="effect2_dropShadow_3_105"/>
<feBlend mode="normal" in="SourceGraphic" in2="effect2_dropShadow_3_105" result="shape"/>
</filter>
<filter id="filter1_dd_3_105" x="188.209" y="249.075" width="106.852" height="106.852" filterUnits="userSpaceOnUse" color-interpolation-filters="sRGB">
<feFlood flood-opacity="0" result="BackgroundImageFix"/>
<feColorMatrix in="SourceAlpha" type="matrix" values="0 0 0 0 0 0 0 0 0 0 0 0 0 0 0 0 0 0 127 0" result="hardAlpha"/>
<feOffset dy="-2.07031"/>
<feGaussianBlur stdDeviation="18.1152"/>
<feComposite in2="hardAlpha" operator="out"/>
<feColorMatrix type="matrix" values="0 0 0 0 0.371081 0 0 0 0 0.235903 0 0 0 0 0.658333 0 0 0 1 0"/>
<feBlend mode="normal" in2="BackgroundImageFix" result="effect1_dropShadow_3_105"/>
<feColorMatrix in="SourceAlpha" type="matrix" values="0 0 0 0 0 0 0 0 0 0 0 0 0 0 0 0 0 0 127 0" result="hardAlpha"/>
<feOffset dy="-2.07031"/>
<feGaussianBlur stdDeviation="10.3515"/>
<feComposite in2="hardAlpha" operator="out"/>
<feColorMatrix type="matrix" values="0 0 0 0 0.48825 0 0 0 0 0.372778 0 0 0 0 0.733333 0 0 0 1 0"/>
<feBlend mode="normal" in2="effect1_dropShadow_3_105" result="effect2_dropShadow_3_105"/>
<feBlend mode="normal" in="SourceGraphic" in2="effect2_dropShadow_3_105" result="shape"/>
</filter>
<filter id="filter2_d_3_105" x="55.4952" y="130.836" width="229.816" height="151.707" filterUnits="userSpaceOnUse" color-interpolation-filters="sRGB">
<feFlood flood-opacity="0" result="BackgroundImageFix"/>
<feColorMatrix in="SourceAlpha" type="matrix" values="0 0 0 0 0 0 0 0 0 0 0 0 0 0 0 0 0 0 127 0" result="hardAlpha"/>
<feOffset dy="1.03515"/>
<feGaussianBlur stdDeviation="5.17577"/>
<feComposite in2="hardAlpha" operator="out"/>
<feColorMatrix type="matrix" values="0 0 0 0 0.440043 0 0 0 0 0.20092 0 0 0 0 0.679167 0 0 0 0.3 0"/>
<feBlend mode="normal" in2="BackgroundImageFix" result="effect1_dropShadow_3_105"/>
<feBlend mode="normal" in="SourceGraphic" in2="effect1_dropShadow_3_105" result="shape"/>
</filter>
<filter id="filter3_d_3_105" x="36.8611" y="41.1525" width="267.082" height="158.578" filterUnits="userSpaceOnUse" color-interpolation-filters="sRGB">
<feFlood flood-opacity="0" result="BackgroundImageFix"/>
<feColorMatrix in="SourceAlpha" type="matrix" values="0 0 0 0 0 0 0 0 0 0 0 0 0 0 0 0 0 0 127 0" result="hardAlpha"/>
<feOffset dy="1.03515"/>
<feGaussianBlur stdDeviation="2.58789"/>
<feComposite in2="hardAlpha" operator="out"/>
<feColorMatrix type="matrix" values="0 0 0 0 0.369333 0 0 0 0 0.0916667 0 0 0 0 0.5 0 0 0 0.15 0"/>
<feBlend mode="normal" in2="BackgroundImageFix" result="effect1_dropShadow_3_105"/>
<feBlend mode="normal" in="SourceGraphic" in2="effect1_dropShadow_3_105" result="shape"/>
</filter>
<filter id="filter4_d_3_105" x="64.0652" y="10.0233" width="214.743" height="144.295" filterUnits="userSpaceOnUse" color-interpolation-filters="sRGB">
<feFlood flood-opacity="0" result="BackgroundImageFix"/>
<feColorMatrix in="SourceAlpha" type="matrix" values="0 0 0 0 0 0 0 0 0 0 0 0 0 0 0 0 0 0 127 0" result="hardAlpha"/>
<feOffset dx="1.03515" dy="1.03515"/>
<feGaussianBlur stdDeviation="3.88183"/>
<feComposite in2="hardAlpha" operator="out"/>
<feColorMatrix type="matrix" values="0 0 0 0 0.440043 0 0 0 0 0.20092 0 0 0 0 0.679167 0 0 0 0.2 0"/>
<feBlend mode="normal" in2="BackgroundImageFix" result="effect1_dropShadow_3_105"/>
<feBlend mode="normal" in="SourceGraphic" in2="effect1_dropShadow_3_105" result="shape"/>
</filter>
<linearGradient id="paint0_linear_3_105" x1="170.751" y1="345.407" x2="170.751" y2="426.928" gradientUnits="userSpaceOnUse">
<stop stop-color="white"/>
<stop offset="0.223958" stop-color="#6BE4FF"/>
<stop offset="0.623188" stop-color="#371B73" stop-opacity="0.6"/>
<stop offset="1" stop-color="#0A1153" stop-opacity="0.4"/>
</linearGradient>
<linearGradient id="paint1_linear_3_105" x1="241.635" y1="279.899" x2="241.635" y2="340.209" gradientUnits="userSpaceOnUse">
<stop stop-color="white"/>
<stop offset="0.223958" stop-color="#6BE4FF"/>
<stop offset="0.623188" stop-color="#371B73" stop-opacity="0.6"/>
<stop offset="1" stop-color="#0A1153" stop-opacity="0.4"/>
</linearGradient>
<radialGradient id="paint2_radial_3_105" cx="0" cy="0" r="1" gradientUnits="userSpaceOnUse" gradientTransform="translate(134.508 166.508) rotate(90) scale(174.508 174.508)">
<stop stop-color="#FF65C1"/>
<stop offset="1" stop-color="#FF65C1" stop-opacity="0"/>
</radialGradient>
<linearGradient id="paint3_linear_3_105" x1="170.403" y1="140.153" x2="170.403" y2="271.156" gradientUnits="userSpaceOnUse">
<stop stop-color="#13154D"/>
<stop offset="1" stop-color="#8E92EE" stop-opacity="0"/>
</linearGradient>
<linearGradient id="paint4_linear_3_105" x1="222.333" y1="213.913" x2="228.25" y2="279.993" gradientUnits="userSpaceOnUse">
<stop stop-color="white" stop-opacity="0"/>
<stop offset="1" stop-color="white"/>
</linearGradient>
<radialGradient id="paint5_radial_3_105" cx="0" cy="0" r="1" gradientUnits="userSpaceOnUse" gradientTransform="translate(37.7554 192.83) rotate(-19.6638) scale(281.722 281.722)">
<stop offset="0.249306" stop-color="white"/>
<stop offset="0.48315" stop-color="#FF8FED" stop-opacity="0.5"/>
<stop offset="0.627037" stop-color="#220C7A" stop-opacity="0.5"/>
</radialGradient>
<linearGradient id="paint6_linear_3_105" x1="51.2999" y1="182.633" x2="297.099" y2="154.889" gradientUnits="userSpaceOnUse">
<stop stop-color="white"/>
<stop offset="1" stop-color="#12178E" stop-opacity="0.4"/>
</linearGradient>
<linearGradient id="paint7_linear_3_105" x1="190.992" y1="274.53" x2="151.754" y2="180.917" gradientUnits="userSpaceOnUse">
<stop offset="0.0011346" stop-color="white"/>
<stop offset="1" stop-color="white" stop-opacity="0"/>
</linearGradient>
<radialGradient id="paint8_radial_3_105" cx="0" cy="0" r="1" gradientUnits="userSpaceOnUse" gradientTransform="translate(96.0871 194.47) rotate(-14.8494) scale(194.684 194.684)">
<stop offset="0.239373" stop-color="white"/>
<stop offset="0.410099" stop-color="#FFCEF1"/>
<stop offset="0.67492" stop-color="#B6B9FF"/>
<stop offset="0.861176" stop-color="#FFA8E7"/>
<stop offset="1" stop-color="white"/>
</radialGradient>
<radialGradient id="paint9_radial_3_105" cx="0" cy="0" r="1" gradientUnits="userSpaceOnUse" gradientTransform="translate(263.486 220.522) rotate(-121.724) scale(111.944 111.944)">
<stop stop-color="#3F52FF"/>
<stop offset="1" stop-color="#3F52FF" stop-opacity="0"/>
</radialGradient>
<linearGradient id="paint10_linear_3_105" x1="44.8011" y1="114.298" x2="298.767" y2="122.189" gradientUnits="userSpaceOnUse">
<stop stop-color="white"/>
<stop offset="1" stop-color="#5653FF" stop-opacity="0.2"/>
</linearGradient>
<linearGradient id="paint11_linear_3_105" x1="153.498" y1="245.847" x2="145.517" y2="124.953" gradientUnits="userSpaceOnUse">
<stop stop-color="white"/>
<stop offset="1" stop-color="white" stop-opacity="0"/>
</linearGradient>
<linearGradient id="paint12_linear_3_105" x1="170.401" y1="16.7518" x2="170.401" y2="145.519" gradientUnits="userSpaceOnUse">
<stop stop-color="#13154D" stop-opacity="0.5"/>
<stop offset="1" stop-color="#8E92EE" stop-opacity="0"/>
</linearGradient>
<linearGradient id="paint13_linear_3_105" x1="187.811" y1="173.475" x2="201.023" y2="31.0858" gradientUnits="userSpaceOnUse">
<stop stop-color="white"/>
<stop offset="1" stop-color="white" stop-opacity="0"/>
</linearGradient>
<linearGradient id="paint14_linear_3_105" x1="170.403" y1="16.7518" x2="170.403" y2="100.794" gradientUnits="userSpaceOnUse">
<stop stop-color="#13154D"/>
<stop offset="1" stop-color="#8E92EE" stop-opacity="0"/>
</linearGradient>
<linearGradient id="paint15_linear_3_105" x1="195.209" y1="162.626" x2="170.403" y2="16.7518" gradientUnits="userSpaceOnUse">
<stop stop-color="white"/>
<stop offset="1" stop-color="white" stop-opacity="0"/>
</linearGradient>
<linearGradient id="paint16_linear_3_105" x1="170.402" y1="19.7307" x2="170.402" y2="69.1254" gradientUnits="userSpaceOnUse">
<stop stop-color="#13154D"/>
<stop offset="1" stop-color="#8E92EE" stop-opacity="0"/>
</linearGradient>
<linearGradient id="paint17_linear_3_105" x1="189.784" y1="121.203" x2="170.402" y2="19.7307" gradientUnits="userSpaceOnUse">
<stop stop-color="white"/>
<stop offset="1" stop-color="white" stop-opacity="0"/>
</linearGradient>
<radialGradient id="paint18_radial_3_105" cx="0" cy="0" r="1" gradientUnits="userSpaceOnUse" gradientTransform="translate(37.7554 192.83) rotate(-19.6638) scale(281.722 281.722)">
<stop offset="0.249306" stop-color="white"/>
<stop offset="0.48315" stop-color="#FF8FED" stop-opacity="0.5"/>
<stop offset="0.627037" stop-color="#220C7A" stop-opacity="0"/>
</radialGradient>
</defs>
</svg>
